<?xml version="1.0" encoding="iso-8859-1"?>
<!-- Generator: Adobe Illustrator 19.0.0, SVG Export Plug-In . SVG Version: 6.00 Build 0)  -->
<svg version="1.1" id="Layer_1" xmlns="http://www.w3.org/2000/svg" xmlns:xlink="http://www.w3.org/1999/xlink" x="0px" y="0px"
	 viewBox="0 0 512 512" style="enable-background:new 0 0 512 512;" xml:space="preserve">
<g>
	<g>
		<path d="M256,102.422c-40.684,0-127.534,145.578-127.534,213.38c0,52.393,30.369,97.51,77.313,117.307v70.467
			c0,4.714,2.828,8.424,7.545,8.424h85.352c4.718,0,9.525-3.71,9.525-8.424v-70.467c44.81-19.797,76.321-64.914,76.321-117.307
			C384.522,248,296.684,102.422,256,102.422z M291.131,494.93h-68.281v-55.758c10.669,3.014,22.317,4.658,34.141,4.658
			s21.338-1.644,34.141-4.658V494.93z M256,426.759c-61.18,0-110.957-49.773-110.957-110.957
			c0-66.51,84.752-196.309,110.957-196.309c26.206,0,110.957,129.799,110.957,196.309C366.957,376.986,317.18,426.759,256,426.759z"
			/>
	</g>
</g>
<g>
	<g>
		<path d="M232.903,384.463c-25.38-7.81-41.984-21.513-49.369-40.734c-17.429-45.389,19.663-108.261,20.038-108.895
			c2.425-4.042,1.109-9.281-2.934-11.702c-4.042-2.434-9.277-1.109-11.703,2.926c-1.717,2.859-41.734,70.557-21.355,123.739
			c9.344,24.393,29.64,41.542,60.305,50.978c0.833,0.258,1.684,0.383,2.509,0.383c3.651,0,7.027-2.359,8.16-6.031
			C239.938,390.623,237.413,385.846,232.903,384.463z"/>
	</g>
</g>
<g>
	<g>
		<path d="M102.367,281.55H34.085c-4.718,0-8.535,3.822-8.535,8.535s3.818,8.535,8.535,8.535h68.281
			c4.718,0,8.535-3.822,8.535-8.535S107.084,281.55,102.367,281.55z"/>
	</g>
</g>
<g>
	<g>
		<path d="M123.255,214.28l-68.281-34.141c-4.218-2.113-9.335-0.404-11.453,3.818c-2.109,4.217-0.4,9.344,3.818,11.453
			l68.282,34.141c1.225,0.613,2.526,0.9,3.809,0.9c3.134,0,6.143-1.725,7.643-4.718C129.181,221.515,127.472,216.389,123.255,214.28
			z"/>
	</g>
</g>
<g>
	<g>
		<path d="M149.277,146.224l-59.746-34.141c-4.101-2.346-9.31-0.921-11.644,3.176c-2.342,4.092-0.917,9.306,3.176,11.644
			l59.746,34.141c1.334,0.763,2.792,1.125,4.226,1.125c2.967,0,5.843-1.542,7.418-4.301
			C154.795,153.775,153.369,148.562,149.277,146.224z"/>
	</g>
</g>
<g>
	<g>
		<path d="M203.889,107.14l-34.141-68.282c-2.117-4.218-7.227-5.926-11.453-3.818c-4.218,2.109-5.926,7.235-3.818,11.453
			l34.141,68.281c1.5,2.992,4.509,4.718,7.643,4.718c1.284,0,2.584-0.287,3.809-0.9C204.289,116.484,205.997,111.358,203.889,107.14
			z"/>
	</g>
</g>
<g>
	<g>
		<path d="M425.579,115.259c-2.342-4.097-7.552-5.522-11.644-3.176l-59.746,34.141c-4.093,2.338-5.518,7.552-3.176,11.644
			c1.575,2.759,4.451,4.301,7.418,4.301c1.434,0,2.892-0.362,4.226-1.125l59.746-34.141
			C426.496,124.565,427.921,119.351,425.579,115.259z"/>
	</g>
</g>
<g>
	<g>
		<path d="M353.705,35.041c-4.209-2.109-9.335-0.4-11.453,3.818l-34.141,68.282c-2.109,4.217-0.4,9.344,3.818,11.453
			c1.225,0.613,2.526,0.9,3.809,0.9c3.134,0,6.143-1.725,7.643-4.718l34.141-68.281C359.631,42.276,357.922,37.15,353.705,35.041z"
			/>
	</g>
</g>
<g>
	<g>
		<path d="M256.99,0c-4.718,0-8.535,3.822-8.535,8.535v68.281c0,4.714,3.818,8.535,8.535,8.535s8.535-3.822,8.535-8.535V8.535
			C265.525,3.822,261.707,0,256.99,0z"/>
	</g>
</g>
<g>
	<g>
		<path d="M459.945,183.957c-2.117-4.222-7.243-5.93-11.453-3.818L380.21,214.28c-4.218,2.109-5.926,7.235-3.818,11.453
			c1.5,2.992,4.509,4.718,7.643,4.718c1.284,0,2.584-0.287,3.809-0.9l68.281-34.141C460.345,193.3,462.053,188.174,459.945,183.957z
			"/>
	</g>
</g>
<g>
	<g>
		<path d="M477.915,281.55h-68.281c-4.718,0-8.535,3.822-8.535,8.535s3.818,8.535,8.535,8.535h68.281
			c4.718,0,8.535-3.822,8.535-8.535S482.633,281.55,477.915,281.55z"/>
	</g>
</g>
<g>
</g>
<g>
</g>
<g>
</g>
<g>
</g>
<g>
</g>
<g>
</g>
<g>
</g>
<g>
</g>
<g>
</g>
<g>
</g>
<g>
</g>
<g>
</g>
<g>
</g>
<g>
</g>
<g>
</g>
</svg>
